<svg id="Layer_1" data-name="Layer 1" xmlns="http://www.w3.org/2000/svg" viewBox="0 0 40 40">
  <defs>
    <style>
      .cls-1 {
        fill: #e43621;
      }

      .cls-2 {
        fill: #fff;
      }

      .cls-3, .cls-4, .cls-5, .cls-6 {
        fill: none;
        stroke-miterlimit: 10;
      }

      .cls-3, .cls-6 {
        stroke: #fff;
      }

      .cls-4, .cls-5 {
        stroke: #e43621;
      }

      .cls-5, .cls-6 {
        stroke-width: 0.5px;
      }
    </style>
  </defs>
  <g id="Layer_2" data-name="Layer 2">
    <g id="Layer_1-2" data-name="Layer 1-2">
      <circle class="cls-1" cx="20" cy="20" r="20"/>
      <path class="cls-2" d="M14.15,21.86H17.5l-.89,10.2H6a.29.29,0,0,1-.29-.29.26.26,0,0,1,.07-.19L13.93,22A.3.3,0,0,1,14.15,21.86Z"/>
      <path class="cls-2" d="M21.73,21.86H18.38l.89,10.2h10.6a.29.29,0,0,0,.29-.29.26.26,0,0,0-.07-.19L22,22A.32.32,0,0,0,21.73,21.86Z"/>
      <polygon class="cls-2" points="30.94 13.71 24.62 13.71 24.62 22.33 30.94 29.54 30.94 13.71"/>
      <line class="cls-3" x1="22.86" y1="13.87" x2="32.79" y2="13.87"/>
      <line class="cls-4" x1="22.87" y1="15.05" x2="32.8" y2="15.05"/>
      <rect class="cls-2" x="24.83" y="9.11" width="5.94" height="4.66"/>
      <rect class="cls-2" x="25.88" y="7.75" width="2.18" height="1.73"/>
      <ellipse class="cls-2" cx="25.02" cy="5.02" rx="1.09" ry="0.56" transform="translate(12.67 27.35) rotate(-72.41)"/>
      <line class="cls-5" x1="25.84" y1="17.47" x2="25.84" y2="24.13"/>
      <line class="cls-5" x1="29.62" y1="17.53" x2="29.62" y2="28.53"/>
      <rect class="cls-1" x="27.27" y="10.16" width="1.47" height="3.01"/>
      <polyline class="cls-6" points="25.2 5.01 26.93 5.43 26.93 8.79"/>
      <path class="cls-2" d="M24.71,5.06h0l-1.17-.23a.15.15,0,1,1,.06-.3h0l1.17.24a.14.14,0,0,1,.12.14,0,0,0,0,0,0,0,.13.13,0,0,1-.13.13Z"/>
    </g>
  </g>
</svg>
