<svg id="Layer_1" data-name="Layer 1" xmlns="http://www.w3.org/2000/svg" xmlns:xlink="http://www.w3.org/1999/xlink" viewBox="0 0 40 40">
  <defs>
    <style>
      .cls-1 {
        fill: none;
      }

      .cls-2 {
        clip-path: url(#clip-path);
      }

      .cls-3 {
        fill: #e43621;
      }

      .cls-4 {
        fill: #fff;
      }
    </style>
    <clipPath id="clip-path">
      <circle id="SVGID" class="cls-1" cx="20" cy="20" r="20"/>
    </clipPath>
  </defs>
  <g>
    <g id="Layer_2" data-name="Layer 2">
      <g id="Layer_1-2" data-name="Layer 1-2">
        <g class="cls-2">
          <g>
            <circle class="cls-3" cx="20" cy="20" r="20"/>
            <path class="cls-1" d="M10.7,11.07a9.63,9.63,0,0,1,1.14-1.69A9.63,9.63,0,0,0,10.7,11.07Z"/>
            <path class="cls-1" d="M11,21.65a9.9,9.9,0,0,0,.85,1.19A9.9,9.9,0,0,1,11,21.65Z"/>
            <path class="cls-1" d="M13.27,24.28a12,12,0,0,0,1.09.78h0A12,12,0,0,1,13.27,24.28Z"/>
            <path class="cls-1" d="M13.27,8A11.3,11.3,0,0,1,15,6.81,11.3,11.3,0,0,0,13.27,8Z"/>
          </g>
        </g>
      </g>
    </g>
    <path class="cls-4" d="M35.85,28.34a.6.6,0,0,0-.74-.41c-.8.22-1.56.41-2.29.56l-1-3.2V8.52a.4.4,0,0,0-.4-.41h-.13a.4.4,0,0,0-.4.41V11h-2V8.52a.4.4,0,0,0-.4-.41h-.13a.4.4,0,0,0-.4.41V25.29L26.73,29s0,.05,0,.08a34.44,34.44,0,0,1-6-.67v-1.8H24.8A8.9,8.9,0,0,1,24.14,29c.38.05.76.08,1.15.11a10.09,10.09,0,0,0-8.9-13.82v-.86a4.9,4.9,0,0,0,.75.08,1.34,1.34,0,0,0,.42-.05,2.68,2.68,0,0,1,1.05-.06A.39.39,0,0,0,19.1,14v-1.1a.35.35,0,0,0-.23-.33,2.63,2.63,0,0,0-1.43,0,2.93,2.93,0,0,1-1.05-.05v-.3a.5.5,0,0,0-.5-.5.5.5,0,0,0-.5.5v3A10.09,10.09,0,0,0,6.24,28.37l.07,0-1.12.39a.6.6,0,1,0,.42,1.12,19.39,19.39,0,0,1,9.51-1.21c1.31.2,2.53.44,3.72.67a42,42,0,0,0,8.22,1,30.11,30.11,0,0,0,8.38-1.24A.6.6,0,0,0,35.85,28.34Zm-5-10.44h-2V15.42h2Zm0,1v2.48h-2V18.89Zm0,3.47v2.49h-2V22.36Zm-2.13,3.47H31l.91,2.84a26.52,26.52,0,0,1-4.22.45ZM30.87,12v2.48h-2V12Zm-6,13.94h-2V23.06h1.73a9,9,0,0,1,.3,2.28C24.91,25.53,24.89,25.71,24.88,25.89Zm-.51-3.59H20.3V19.47h2.42A8.74,8.74,0,0,1,24.37,22.3ZM18.28,28l-.52-.1V24.77a2,2,0,0,0-1.86-2,2,2,0,0,0-1.86,2v2.56l-.52,0V24.5a2.38,2.38,0,0,1,4.76,0ZM15.89,16.32a8.88,8.88,0,0,1,1.65.16v2.23H13.66v-2.1A9.15,9.15,0,0,1,15.89,16.32Zm-4.43,3.15h3.76v2h0a3.22,3.22,0,0,0-1.55.86H11.46ZM9.8,18.71a9,9,0,0,1,3.1-1.87v1.87Zm3.1,4.35v.58a3,3,0,0,0-.14.86v1.39H9.14V23.06Zm.32-.17,0,.07Zm2.68-1.53H16v-1.9h3.56V22.3H18.13a3.37,3.37,0,0,1,.3.36A3.14,3.14,0,0,0,15.9,21.36Zm2.4-2.65V16.66A9,9,0,0,1,22,18.71Zm-9.24.76H10.7V22.3H7.41A9.11,9.11,0,0,1,9.06,19.47ZM6.87,25.34a8.59,8.59,0,0,1,.31-2.28h1.2v2.83H6.92A4.89,4.89,0,0,1,6.87,25.34ZM7,26.65h3.55v.77a22.39,22.39,0,0,0-3.24.64h0A9.57,9.57,0,0,1,7,26.65Zm4.31.69v-.69h1.47v.63C12.26,27.29,11.77,27.3,11.29,27.34Zm3.42.06V24.77a1.2,1.2,0,1,1,2.38,0v3l-1.78-.31C15.11,27.43,14.91,27.42,14.71,27.4Zm4.33.73V24.5a3.05,3.05,0,0,0-.37-1.44h3.45v2.83H19v.76H20v1.66l-.9-.17Z"/>
  </g>
</svg>
