<svg id="Layer_1" data-name="Layer 1" xmlns="http://www.w3.org/2000/svg" viewBox="0 0 40 40">
  <defs>
    <style>
      .cls-1 {
        fill: #5eb35e;
      }

      .cls-2 {
        fill: none;
      }

      .cls-3 {
        fill: #fff;
      }
    </style>
  </defs>
  <g id="Layer_2" data-name="Layer 2">
    <g id="Layer_1-2" data-name="Layer 1-2">
      <circle class="cls-1" cx="20" cy="20" r="20"/>
      <polygon class="cls-2" points="27.8 21.7 20 20.1 11.8 21.8 11.8 27.3 20 34.8 28.2 27.3 28.2 21.8 27.8 21.7"/>
      <path class="cls-2" d="M28.2,13.6A8.3,8.3,0,0,0,21.7,6a9.63,9.63,0,0,1,3.1,6.8A20.92,20.92,0,0,1,28.2,13.6Z"/>
      <path class="cls-2" d="M18.3,6a8.3,8.3,0,0,0-6.5,7.6,20.92,20.92,0,0,1,3.4-.8A9.63,9.63,0,0,1,18.3,6Z"/>
      <path class="cls-2" d="M20,12.4c1.3,0,2.5.1,3.8.2A8.9,8.9,0,0,0,20,6a8.92,8.92,0,0,0-3.8,6.7A24.33,24.33,0,0,1,20,12.4Z"/>
      <path class="cls-3" d="M29.56,14.91c-.38-.19-.65-.28-1-.46A8.68,8.68,0,0,0,20.46,6,.43.43,0,0,0,20,5.54a.44.44,0,0,0-.47.46h0a8.6,8.6,0,0,0-8.07,8.45,3.28,3.28,0,0,0-1,.46.86.86,0,0,0-.37,1.21,1,1,0,0,0,.83.46.55.55,0,0,0,.37-.09c-1.57,1.3-.09,3.62.47,4.36-.19.09-.28.19-.28.37v5.66a.66.66,0,0,0,.19.37l8.07,7.43a.26.26,0,0,0,.28.18.36.36,0,0,0,.28-.09l8.07-7.42a.52.52,0,0,0,.19-.38V21.31c0-.18-.1-.27-.28-.37.55-.83,2-3.06.46-4.36A1,1,0,0,0,29.93,16a.86.86,0,0,0-.37-1.11Zm-1.95-.83a19.05,19.05,0,0,0-3.16-.75A8.94,8.94,0,0,0,21.58,7,7.71,7.71,0,0,1,27.61,14.08ZM22.5,17.6h-.09a.46.46,0,0,1-.46-.37.45.45,0,0,1,.27-.56h0l2.6-.83a.45.45,0,0,1,.56.28.44.44,0,0,1-.28.55Zm2,.84a.57.57,0,0,1-.09.37c0,.09-.09.18-.18.28a.36.36,0,0,1-.19.09c-.09,0-.09.09-.18.09s-.1.09-.19.09h-.19a.88.88,0,0,1-.65-.27c-.09-.1-.18-.19-.18-.28a1,1,0,0,1,0-.74c.09-.1.09-.19.18-.28a1.29,1.29,0,0,1,.84-.28c.09,0,.09,0,.19.09s.09.09.18.09l.19.1c.09.09.18.18.18.28S24.54,18.25,24.54,18.44ZM20,7a8.25,8.25,0,0,1,3.52,6.22,28.94,28.94,0,0,0-7,0A7.94,7.94,0,0,1,20,7Zm-5,9.75a.42.42,0,0,1-.28-.56h0a.39.39,0,0,1,.56-.28h0l2.59.84a.41.41,0,0,1,.28.55h0a.89.89,0,0,1-.46.37h-.1Zm2.32,1.67a.52.52,0,0,1-.1.37c-.09.09-.09.18-.18.28a.86.86,0,0,1-.65.27.85.85,0,0,1-.65-.27c-.09-.1-.19-.19-.19-.28a.57.57,0,0,1-.09-.37.82.82,0,0,1,.28-.65.9.9,0,0,1,1.3,0c.09.09.18.18.18.28S17.31,18.25,17.31,18.44ZM18.42,7a9,9,0,0,0-2.88,6.31,17,17,0,0,0-3.15.75A7.7,7.7,0,0,1,18.42,7ZM12.3,19.09h0a.59.59,0,0,1-.56-.47l-.19-2.22c.1-.1.28-.1.47-.19l.18-.09.28-.1.28,2.51a.6.6,0,0,1-.46.56ZM20,33.75l-7.61-7V21.68L20,20l7.24,1.58.37.09v5.11Zm8.16-15.13c0,.28-.18.37-.46.47h-.09a.62.62,0,0,1-.37-.47l.27-2.5.28.09.19.09c.18.1.28.1.46.19Z"/>
    </g>
  </g>
</svg>
