<svg id="Layer_1" data-name="Layer 1" xmlns="http://www.w3.org/2000/svg" viewBox="0 0 40 40">
  <defs>
    <style>
      .cls-1 {
        fill: #e43621;
      }

      .cls-2 {
        fill: #fff;
      }
    </style>
  </defs>
  <g id="Layer_2" data-name="Layer 2">
    <g id="Layer_1-2" data-name="Layer 1-2">
      <circle class="cls-1" cx="20" cy="20" r="20"/>
      <path class="cls-2" d="M34.08,20.92l-1.63-3.14L30,9.84h0V9.69h0a.16.16,0,0,0-.08-.06l-.06-.05H17.67a.18.18,0,0,0-.07.05h0l-5.36,7.43a3.79,3.79,0,0,0-1.18-1l.25-.6a.5.5,0,0,0-.92-.38l-.25.6a3.35,3.35,0,0,0-.55-.11V15a.5.5,0,0,0-1,0v.65a3.35,3.35,0,0,0-.55.11l-.25-.6a.49.49,0,0,0-.64-.28h0a.51.51,0,0,0-.27.65l.25.6a4.76,4.76,0,0,0-.47.31L6.12,16a.5.5,0,0,0-.7,0,.5.5,0,0,0,0,.71h0l.45.46c-.11.15-.21.3-.31.46L5,17.34a.48.48,0,0,0-.64.26h0a.51.51,0,0,0,.27.65l.6.25a4.86,4.86,0,0,0-.11.55H4.42a.5.5,0,0,0-.5.5.52.52,0,0,0,.5.5h.65a4.86,4.86,0,0,0,.11.55l-.6.25a.51.51,0,0,0-.27.65.51.51,0,0,0,.46.31H5l.6-.25c.1.16.2.32.31.47l-.45.46a.49.49,0,0,0,0,.68l0,0a.49.49,0,0,0,.68,0l0,0,.46-.45c.15.11.31.21.47.31l-.25.6a.51.51,0,0,0,.27.65.61.61,0,0,0,.19,0A.5.5,0,0,0,7.72,24L8,23.4a4.86,4.86,0,0,0,.55.11v.65a.5.5,0,0,0,1,0v-.65a4.86,4.86,0,0,0,.55-.11l.25.6a.51.51,0,0,0,.46.31.61.61,0,0,0,.19,0,.49.49,0,0,0,.28-.64h0L11,23c.16-.1.32-.2.47-.31l.46.45a.51.51,0,0,0,.35.15.49.49,0,0,0,.36-.15.5.5,0,0,0,0-.7L12.17,22a4.11,4.11,0,0,0,.74-1.53l.47.91a.48.48,0,0,0,.44.27h5.49v1.66H17.13a.5.5,0,0,0-.5.5v4h0a2.09,2.09,0,0,0,0,4.17h4.56a2.09,2.09,0,0,0,.29-4.17h-.29V26.65H26.3v1.11h0a2.09,2.09,0,0,0,0,4.17h4.56a2.09,2.09,0,0,0,0-4.17h0v-4a.5.5,0,0,0-.5-.5H28.15V21.65h5.49a.5.5,0,0,0,.43-.24A.5.5,0,0,0,34.08,20.92Zm-8.7-1.87.81,1.56H24.57Zm-2.49,1.56H21.27l.81-1.56Zm-2.46-.55-.83-1.59h1.66Zm6.6,0-.82-1.59h1.65Zm-.83-2.59,3.2-6.17,1.91,6.17Zm-2.47,2.59-5-9.58h10Zm-5.86-9.12,3.39,6.53H13.15ZM18,18.47l-.83,1.59-.82-1.59Zm-4.45,1a.5.5,0,0,0-.13-.25L13,18.47h1.66l-.83,1.59-.15-.29Zm2-.4.83,1.6H14.64Zm3.31,0,.82,1.6H18Zm9.08,1.6.83-1.6.82,1.6Zm1.65-2.18h1.66l-.83,1.59ZM12,19.06H10.43a1.5,1.5,0,1,0,0,1H12a3,3,0,1,1,0-1Zm-2.45.5a.5.5,0,0,1-.5.5.52.52,0,0,1-.5-.5.5.5,0,0,1,.5-.5.51.51,0,0,1,.47.5ZM22.26,29.84a1.09,1.09,0,0,1-1.09,1.09H16.61a1.09,1.09,0,0,1,0-2.17h4.56A1.09,1.09,0,0,1,22.26,29.84Zm-2.1-2.08H17.63V26.65h2.53Zm11.77,2.08a1.08,1.08,0,0,1-1.07,1.09H26.29a1.09,1.09,0,0,1,0-2.17h4.56A1.08,1.08,0,0,1,31.93,29.84ZM27.3,27.76V26.65h2.53v1.11Zm-.15-4.45H20.31V21.65h6.84Zm4-2.66.83-1.6.83,1.6Z"/>
      <path class="cls-2" d="M17.09,29.49a.39.39,0,0,0-.17-.11.5.5,0,0,0-.38,0,.36.36,0,0,0-.16.11.49.49,0,0,0,0,.68l0,0a.36.36,0,0,0,.16.11h.38a.39.39,0,0,0,.17-.11.5.5,0,0,0,.14-.35.61.61,0,0,0,0-.19A.7.7,0,0,0,17.09,29.49Z"/>
      <path class="cls-2" d="M19.25,29.49a.39.39,0,0,0-.17-.11.5.5,0,0,0-.38,0,.36.36,0,0,0-.16.11.49.49,0,0,0,0,.68l0,0a.36.36,0,0,0,.16.11h.38a.39.39,0,0,0,.17-.11.5.5,0,0,0,.14-.35.61.61,0,0,0,0-.19A.7.7,0,0,0,19.25,29.49Z"/>
      <path class="cls-2" d="M20.7,30.19a.36.36,0,0,0,.16.11h.38a.39.39,0,0,0,.17-.11.5.5,0,0,0,.14-.35.61.61,0,0,0,0-.19.91.91,0,0,0-.11-.16.39.39,0,0,0-.17-.11.5.5,0,0,0-.38,0,.36.36,0,0,0-.16.11.49.49,0,0,0,0,.68l0,0Z"/>
      <path class="cls-2" d="M26.77,29.49a.39.39,0,0,0-.17-.11.5.5,0,0,0-.38,0,.36.36,0,0,0-.16.11.49.49,0,0,0,0,.68l0,0a.36.36,0,0,0,.16.11h.38a.39.39,0,0,0,.17-.11.5.5,0,0,0,.14-.35.61.61,0,0,0,0-.19A.7.7,0,0,0,26.77,29.49Z"/>
      <path class="cls-2" d="M28.93,29.49a.39.39,0,0,0-.17-.11.5.5,0,0,0-.38,0,.36.36,0,0,0-.16.11.49.49,0,0,0,0,.68l0,0a.36.36,0,0,0,.16.11h.38a.39.39,0,0,0,.17-.11.5.5,0,0,0,.14-.35.61.61,0,0,0,0-.19A.7.7,0,0,0,28.93,29.49Z"/>
      <path class="cls-2" d="M30.38,30.19a.36.36,0,0,0,.16.11h.38a.39.39,0,0,0,.17-.11.5.5,0,0,0,.14-.35.61.61,0,0,0,0-.19.91.91,0,0,0-.11-.16.39.39,0,0,0-.17-.11.5.5,0,0,0-.38,0,.36.36,0,0,0-.16.11.49.49,0,0,0,0,.68l0,0Z"/>
    </g>
  </g>
</svg>
