<svg id="Layer_1" data-name="Layer 1" xmlns="http://www.w3.org/2000/svg" viewBox="0 0 40 40">
  <defs>
    <style>
      .cls-1 {
        fill: #5eb35e;
      }

      .cls-2 {
        fill: #fff;
      }

      .cls-3, .cls-4 {
        fill: none;
        stroke: #fff;
        stroke-miterlimit: 10;
      }

      .cls-3 {
        stroke-linecap: round;
      }

      .cls-4 {
        stroke-width: 0.25px;
      }
    </style>
  </defs>
  <circle class="cls-1" cx="20" cy="20" r="20"/>
  <path class="cls-2" d="M27.49,15.46s-4.86,3.16,0,6.93C32.34,18.62,27.49,15.46,27.49,15.46ZM27.68,17a.35.35,0,0,1,.3-.41.35.35,0,0,1,.41.29.24.24,0,0,1,0,.12.35.35,0,0,1-.3.41.35.35,0,0,1-.41-.29A.24.24,0,0,1,27.68,17Z"/>
  <polygon class="cls-2" points="27.48 22.39 25.24 24.54 27.48 24.54 29.73 24.54 27.48 22.39"/>
  <rect class="cls-2" x="10.27" y="24.4" width="2.14" height="7.57" rx="0.52"/>
  <path class="cls-3" d="M27.49,8.12C10.42,8.12,11.35,24.4,11.35,24.4"/>
  <path class="cls-4" d="M12,20.26a3.33,3.33,0,0,0,1.54-4.11"/>
  <path class="cls-4" d="M12.21,24.21a3.31,3.31,0,0,0-.42-4.31"/>
  <path class="cls-4" d="M13.29,16.34a3.34,3.34,0,0,0,2.62-3.52"/>
  <path class="cls-4" d="M15.54,12.8a3.32,3.32,0,0,0,3.57-2.53"/>
  <path class="cls-4" d="M18.94,10.27a3.34,3.34,0,0,0,4.22-1.2"/>
  <path class="cls-4" d="M23.06,8.9a3.34,3.34,0,0,0,4.37-.42"/>
  <line class="cls-4" x1="27.49" y1="16.46" x2="27.49" y2="7.83"/>
  <path class="cls-2" d="M12.85,23.74a.92.92,0,1,0,.92.92.92.92,0,0,0-.92-.92Zm0,1.28a.35.35,0,0,1-.41-.3.35.35,0,0,1,.29-.41h.12a.35.35,0,0,1,.41.3A.35.35,0,0,1,13,25,.24.24,0,0,1,12.85,25Z"/>
</svg>
