<svg id="Layer_1" data-name="Layer 1" xmlns="http://www.w3.org/2000/svg" viewBox="0 0 40 40">
  <defs>
    <style>
      .cls-1 {
        fill: #2baae2;
      }

      .cls-2 {
        fill: #fff;
      }
    </style>
  </defs>
  <g id="Layer_2" data-name="Layer 2">
    <g id="Layer_1-2" data-name="Layer 1-2">
      <circle class="cls-1" cx="20" cy="20" r="20"/>
      <rect class="cls-2" x="10.81" y="29.93" width="16.48" height="2.86" rx="0.42"/>
      <path class="cls-2" d="M30.55,25.65A2.68,2.68,0,0,1,27.89,23V20.66a1.24,1.24,0,0,0-1.24-1.23H25.48a.85.85,0,0,1,0-1.69h1.17a2.92,2.92,0,0,1,2.92,2.92V23a1,1,0,0,0,2,0V13l-3-2.9a.82.82,0,0,1,0-1.17h0a.84.84,0,0,1,1.19,0h0L33,12a.81.81,0,0,1,.26.6V23a2.68,2.68,0,0,1-2.71,2.65Z"/>
      <path class="cls-2" d="M29.52,10.75l.14,4.69a1.5,1.5,0,0,0,.83,1.26l1.64.9L32,13.09Z"/>
      <path class="cls-2" d="M19.52,19.42h6.4V11.19a3.64,3.64,0,0,0-3.64-3.64H15.82a3.64,3.64,0,0,0-3.64,3.64h0V27.48a.5.5,0,0,0,.49.51H25.42a.5.5,0,0,0,.5-.5h0V20.42h-6.4a.5.5,0,1,1,0-1Zm-4.32-2a.73.73,0,0,1-.73-.73V11.06a.73.73,0,0,1,.73-.73h7.4a.75.75,0,0,1,.74.73v5.68a.75.75,0,0,1-.74.73Z"/>
    </g>
  </g>
</svg>
