<svg id="Layer_1" data-name="Layer 1" xmlns="http://www.w3.org/2000/svg" viewBox="0 0 40 40"><defs><style>.cls-1{fill:#5eb35e;}.cls-2{fill:#fff;}</style></defs><g id="Layer_2" data-name="Layer 2"><g id="Layer_1-2" data-name="Layer 1-2"><circle class="cls-1" cx="20" cy="20" r="20"/></g></g><path class="cls-2" d="M23.83,28.39c7-4.46,1-17.5,1-17.5L30.68,9.1l1,2.69-2.92.89s5.67,13.09-3,18.58a11,11,0,0,1-11.54,0c-8.64-5.49-3-18.58-3-18.58l-2.92-.89,1-2.69,5.82,1.79s-6,13,1,17.5A7.25,7.25,0,0,0,23.83,28.39Z"/><path class="cls-2" d="M20,34.25a12.12,12.12,0,0,1-6.5-1.86c-7.82-5-5.28-15.11-4-18.84L8,13.07a1.37,1.37,0,0,1-.81-.68,1.35,1.35,0,0,1-.06-1.06l1-2.69a1.36,1.36,0,0,1,1.66-.83l5.83,1.8a1.34,1.34,0,0,1,.83,1.84c-.06.12-5.38,12,.52,15.81a6,6,0,0,0,6.22,0h0c5.92-3.79.58-15.69.52-15.81a1.34,1.34,0,0,1,.83-1.84l5.83-1.8A1.35,1.35,0,0,1,32,8.64l1,2.69a1.35,1.35,0,0,1-.06,1.06,1.37,1.37,0,0,1-.81.68l-1.55.48c1.28,3.73,3.82,13.86-4,18.84A12.12,12.12,0,0,1,20,34.25ZM10.09,10.92l1.56.48a1.32,1.32,0,0,1,.83.72,1.36,1.36,0,0,1,0,1.1c-.05.12-5.1,12.1,2.46,16.9a9.58,9.58,0,0,0,10.1,0c7.56-4.8,2.51-16.78,2.46-16.9a1.36,1.36,0,0,1,0-1.1,1.32,1.32,0,0,1,.83-.72l1.56-.48-.06-.16-3.19,1c1.4,3.71,4.37,13.65-2.1,17.79h0a8.62,8.62,0,0,1-9.12,0c-6.47-4.14-3.5-14.08-2.1-17.79l-3.19-1ZM23.83,28.39h0Z"/><path class="cls-1" d="M12,13.67a1.71,1.71,0,1,0,1.7,1.7A1.7,1.7,0,0,0,12,13.67Z"/><path class="cls-1" d="M11.12,19.05a1.71,1.71,0,0,0,0,3.41,1.71,1.71,0,1,0,0-3.41Z"/><circle class="cls-1" cx="12.11" cy="26.13" r="1.7"/><path class="cls-1" d="M28,13.67a1.71,1.71,0,1,0,1.7,1.7A1.7,1.7,0,0,0,28,13.67Z"/><path class="cls-1" d="M28.88,19.05a1.71,1.71,0,1,0,1.7,1.7A1.71,1.71,0,0,0,28.88,19.05Z"/><circle class="cls-1" cx="27.89" cy="26.13" r="1.7"/><path class="cls-1" d="M20,29.2a10.4,10.4,0,0,0,2.84-.42,1.69,1.69,0,0,1,1.95.83h0a1.7,1.7,0,0,1-1,2.44,17.41,17.41,0,0,1-2.6.6,8.31,8.31,0,0,1-2.44,0,17.41,17.41,0,0,1-2.6-.6,1.7,1.7,0,0,1-1-2.44h0a1.69,1.69,0,0,1,1.95-.83A10.4,10.4,0,0,0,20,29.2Z"/></svg>