<svg id="Layer_1" data-name="Layer 1" xmlns="http://www.w3.org/2000/svg" viewBox="0 0 40 40">
  <defs>
    <style>
      .cls-1 {
        fill: #e43621;
      }

      .cls-2 {
        fill: #fff;
      }
    </style>
  </defs>
  <g id="Layer_2" data-name="Layer 2">
    <g id="Layer_1-2" data-name="Layer 1-2">
      <circle class="cls-1" cx="20" cy="20" r="20"/>
      <path class="cls-2" d="M11.63,9.87l1,.75a3.87,3.87,0,0,1,6,4.26l6,4.2a3.87,3.87,0,0,1,6.15,2.54,3.91,3.91,0,0,1-.13,1.7l1.72,1.21.59-.64A1.25,1.25,0,0,0,33,22.23l0-.11.92-1.21a1.79,1.79,0,0,0-.27-2.44l-.91-.78a.92.92,0,0,1-.28-1L33.61,13,23.87,6.79l-3.34,1.9A1.44,1.44,0,0,1,19,8.61L16.39,6.75a1.28,1.28,0,0,0-1.8.29.36.36,0,0,0-.07.1L13.41,9l-.87-.53Zm15.09,3.76L28.4,11l3.72,2.51-1.31,2.75ZM21,9.92l2.65-1.73,3.47,2.5-1.4,2.51Z"/>
      <path class="cls-2" d="M32.17,29.64l-1-.2.46-2.12a1.3,1.3,0,0,0-1-1.55l-.1,0-3.16-.39a1.43,1.43,0,0,1-1.19-1L25,20.7,13.67,18.6,12,22.15a.92.92,0,0,1-.87.53l-1.19-.05a1.76,1.76,0,0,0-1.85,1.61l-.16,1.5H7.8A1.27,1.27,0,0,0,6.69,27v.88l2.07.27a4.06,4.06,0,0,1,1.07-1.33,3.88,3.88,0,0,1,6.24,2.31l7.21,1a3.89,3.89,0,0,1,5.18-1.85,3.76,3.76,0,0,1,.61.36,3.84,3.84,0,0,1,1.54,2.47l1.28.18ZM13.49,22.91l.92-2.9,4.42.68-.56,3.09Zm5.78,1.21L20,21.33l4.25.52L25,24.93Z"/>
      <circle class="cls-2" cx="14.81" cy="13.94" r="2.91"/>
      <circle class="cls-1" cx="14.81" cy="13.94" r="1.38"/>
      <circle class="cls-2" cx="26.69" cy="31.69" r="2.91"/>
      <circle class="cls-1" cx="26.69" cy="31.69" r="1.38"/>
      <rect class="cls-2" x="5.2" y="16.66" width="6.94" height="3.38" rx="0.7" transform="translate(-11.62 17.97) rotate(-63.64)"/>
    </g>
  </g>
</svg>
