<svg id="Layer_1" data-name="Layer 1" xmlns="http://www.w3.org/2000/svg" viewBox="0 0 40 40">
  <defs>
    <style>
      .cls-1 {
        fill: #e43621;
      }

      .cls-2 {
        fill: #fff;
      }

      .cls-3, .cls-4 {
        fill: none;
        stroke-miterlimit: 10;
      }

      .cls-3 {
        stroke: #e43621;
        stroke-width: 0.75px;
      }

      .cls-4 {
        stroke: #fff;
      }
    </style>
  </defs>
  <g id="Layer_2" data-name="Layer 2">
    <g id="Layer_1-2" data-name="Layer 1-2">
      <circle class="cls-1" cx="20" cy="20" r="20"/>
      <path class="cls-2" d="M26.54,24.77v-6H27V13.34h-.45V12.06H27v-3L24.8,4.2a.54.54,0,0,0-.7-.3.55.55,0,0,0-.3.3L21.62,9.06v3h.51v1.28h-.46v5.44h.46v5.91l-1,3.59v7.38h6.39V28.28Z"/>
      <line class="cls-3" x1="24.23" y1="28.14" x2="24.23" y2="36.27"/>
      <polygon class="cls-4" points="17.97 35.22 17.97 7.22 12.47 13.16 12.59 35.18 17.97 35.22"/>
      <line class="cls-4" x1="12.7" y1="13.63" x2="23.09" y2="13.63"/>
      <line class="cls-4" x1="12.7" y1="17.95" x2="17.58" y2="17.95"/>
      <line class="cls-4" x1="12.7" y1="22.27" x2="17.58" y2="22.27"/>
      <line class="cls-4" x1="12.7" y1="26.59" x2="17.58" y2="26.59"/>
      <line class="cls-4" x1="12.7" y1="30.91" x2="21.69" y2="30.91"/>
    </g>
  </g>
</svg>
