<svg id="Layer_1" data-name="Layer 1" xmlns="http://www.w3.org/2000/svg" viewBox="0 0 40 40">
  <defs>
    <style>
      .cls-1 {
        fill: #2baae2;
      }

      .cls-2 {
        fill: #fff;
      }
    </style>
  </defs>
  <g id="Layer_2" data-name="Layer 2">
    <g id="Layer_1-2" data-name="Layer 1-2">
      <circle class="cls-1" cx="20" cy="20" r="20"/>
      <path class="cls-2" d="M15.84,16.63h8.32a.32.32,0,0,0,.09-.23V14.8a.32.32,0,0,0-.32-.32h-.51V9.05h.12a.43.43,0,0,0,.46-.4v-.8a.48.48,0,0,0-.31-.45L20,6.4l-3.58,1a.46.46,0,0,0-.31.45v.74a.43.43,0,0,0,.4.46h.13v5.43h-.51a.32.32,0,0,0-.32.32v1.6A.31.31,0,0,0,15.84,16.63Zm1.74-7h4.84v4.85H17.58Z"/>
      <path class="cls-2" d="M26.94,33.43H25l-1.44-16H16.4l-1.4,16H13.1a.5.5,0,0,0,0,1H26.94a.5.5,0,1,0,0-1Z"/>
      <path class="cls-1" d="M20,20.51h0a1.22,1.22,0,0,1,1.22,1.22V23a.22.22,0,0,1-.22.22H19a.22.22,0,0,1-.22-.22V21.73A1.22,1.22,0,0,1,20,20.51Z"/>
      <path class="cls-1" d="M20,26.3h0a1.22,1.22,0,0,1,1.22,1.22v1.2a.33.33,0,0,1-.33.33H19.12a.33.33,0,0,1-.33-.33v-1.2A1.22,1.22,0,0,1,20,26.3Z"/>
      <path class="cls-2" d="M27.49,10.55a.49.49,0,0,1-.45-.3.5.5,0,0,1,.25-.66l4.22-1.9a.49.49,0,0,1,.65.23v0a.5.5,0,0,1-.25.66L27.7,10.5A.54.54,0,0,1,27.49,10.55Z"/>
      <path class="cls-2" d="M31.71,17a.67.67,0,0,1-.2,0l-4.22-2a.5.5,0,0,1-.29-.64.51.51,0,0,1,.64-.3l.06,0L31.92,16a.5.5,0,0,1,.25.66A.48.48,0,0,1,31.71,17Z"/>
      <path class="cls-2" d="M32,12.8H27.49a.5.5,0,0,1,0-1H32a.5.5,0,0,1,0,1Z"/>
      <path class="cls-2" d="M12.72,10.49a.34.34,0,0,1-.2,0L8.29,8.55A.51.51,0,0,1,8,7.89a.49.49,0,0,1,.64-.26h0l4.23,1.9a.51.51,0,0,1-.21,1Z"/>
      <path class="cls-2" d="M8.5,16.9a.52.52,0,0,1-.5-.29A.5.5,0,0,1,8.29,16l4.23-2a.49.49,0,0,1,.64.29.5.5,0,0,1-.23.62L8.7,16.86A.45.45,0,0,1,8.5,16.9Z"/>
      <path class="cls-2" d="M12.72,12.75H8.18a.5.5,0,0,1,0-1h4.54a.5.5,0,0,1,0,1Z"/>
      <path class="cls-1" d="M25.19,20.35H22.57a.39.39,0,0,1-.44-.31.39.39,0,0,1,.32-.44.24.24,0,0,1,.12,0h2.62a.39.39,0,0,1,.44.31.39.39,0,0,1-.32.44Z"/>
      <path class="cls-1" d="M25.52,25.16H22.89a.38.38,0,0,1,0-.75h2.63a.36.36,0,0,1,.37.35v0a.38.38,0,0,1-.36.38Z"/>
      <path class="cls-1" d="M25.94,30H23.32a.39.39,0,0,1-.44-.31.39.39,0,0,1,.32-.44.24.24,0,0,1,.12,0h2.62a.39.39,0,0,1,.44.31.39.39,0,0,1-.32.44A.24.24,0,0,1,25.94,30Z"/>
      <path class="cls-1" d="M28.16,33.41H10.5a.38.38,0,0,1,0-.75H28.16a.38.38,0,0,1,.38.38h0a.38.38,0,0,1-.37.37Z"/>
      <circle class="cls-2" cx="19.96" cy="12.16" r="0.87"/>
    </g>
  </g>
</svg>
