<svg id="Layer_1" data-name="Layer 1" xmlns="http://www.w3.org/2000/svg" viewBox="0 0 40 40">
  <defs>
    <style>
      .cls-1 {
        fill: #e43621;
      }

      .cls-2, .cls-3 {
        fill: #fff;
      }

      .cls-3 {
        stroke: #fff;
        stroke-linecap: round;
        stroke-linejoin: round;
        stroke-width: 0.5px;
      }
    </style>
  </defs>
  <g>
    <circle class="cls-1" cx="20" cy="20" r="20"/>
    <g>
      <g>
        <path class="cls-2" d="M18,15l.52-.22a5.18,5.18,0,0,1,3-.3l8.57,1.6c.93.17.95-.47,1.6-.35l1,.19-.33,1.75L32,19.44l-1-.18c-.65-.12-.43-.73-1.36-.9l-8.58-1.6a5.1,5.1,0,0,1-2.65-1.35Z"/>
        <g>
          <path class="cls-2" d="M20.59,11.87l.51-.22a5.12,5.12,0,0,1,3-.3L32.64,13c.93.17,1-.47,1.59-.35l1,.19-.32,1.75-.33,1.75-1-.18c-.65-.12-.43-.73-1.36-.9l-8.58-1.6A5.14,5.14,0,0,1,21,12.26Z"/>
          <path class="cls-2" d="M19.28,18.88l.51-.22a5.12,5.12,0,0,1,3-.3L31.33,20c.93.17,1-.47,1.6-.35l1,.19-.32,1.75-.33,1.75-1-.18c-.65-.12-.43-.73-1.36-.9l-8.58-1.6a5.17,5.17,0,0,1-2.65-1.35Z"/>
        </g>
      </g>
      <circle class="cls-2" cx="8.58" cy="26.41" r="2.34"/>
      <circle class="cls-2" cx="25.41" cy="26.41" r="2.34"/>
      <circle class="cls-2" cx="31.06" cy="26.41" r="2.34"/>
      <path class="cls-3" d="M31.14,24.05v-.11a.82.82,0,0,0-.69-.81l-8.29-1.36A1.24,1.24,0,0,0,20.72,23v.65a.41.41,0,0,1-.41.41H17.74a.41.41,0,0,1-.42-.41V22.2a.41.41,0,0,0-.42-.41H14.11a.42.42,0,0,1-.42-.42V19.55a.41.41,0,0,0-.41-.42H7.9a.41.41,0,0,0-.37.23L5.77,22.77l-1,.28v3.57a.41.41,0,0,0,.41.42h27.9a.42.42,0,0,0,.42-.42V24.47a.42.42,0,0,0-.42-.42ZM9.93,22.76H7.41A.41.41,0,0,1,7,22.17c.31-.68.82-1.77,1-2.26a.41.41,0,0,1,.38-.25H9.93a.42.42,0,0,1,.42.42v2.26A.42.42,0,0,1,9.93,22.76Z"/>
    </g>
  </g>
</svg>
