<svg id="Layer_1" data-name="Layer 1" xmlns="http://www.w3.org/2000/svg" viewBox="0 0 40 40">
  <defs>
    <style>
      .cls-1 {
        fill: #e43621;
      }

      .cls-2 {
        fill: #fff;
      }

      .cls-3 {
        fill: none;
        stroke: #e43621;
        stroke-miterlimit: 10;
      }
    </style>
  </defs>
  <g id="Layer_2" data-name="Layer 2">
    <g id="Layer_1-2" data-name="Layer 1-2">
      <circle class="cls-1" cx="20" cy="20" r="20"/>
      <path class="cls-2" d="M33.94,29.83a19,19,0,0,0,.27-19.66l-6.49,1.64a32.24,32.24,0,0,1-7.88,1h0a32.16,32.16,0,0,1-7.87-1L5.48,10.17a19,19,0,0,0,.27,19.66l9.78-1.93h8.62Z"/>
      <line class="cls-3" x1="9.41" y1="9.56" x2="9.41" y2="29.81"/>
      <line class="cls-3" x1="30.22" y1="9.59" x2="30.22" y2="29.84"/>
      <path class="cls-1" d="M19.87,19.53h0A6.16,6.16,0,0,1,26,25.68v2.75a3.41,3.41,0,0,1-3.41,3.41h-5.5a3.41,3.41,0,0,1-3.41-3.41V25.68a6.16,6.16,0,0,1,6.16-6.16Z"/>
    </g>
  </g>
</svg>
