<?xml version="1.0" encoding="UTF-8"?>
<svg id="Layer_1" data-name="Layer 1" xmlns="http://www.w3.org/2000/svg" xmlns:xlink="http://www.w3.org/1999/xlink" viewBox="0 0 40 40">
  <defs>
    <style>
      .cls-1 {
        fill: #fff;
      }

      .cls-2 {
        clip-path: url(#clippath);
      }

      .cls-3 {
        fill: none;
      }

      .cls-4 {
        fill: #e43621;
      }
    </style>
    <clipPath id="clippath">
      <circle class="cls-3" cx="20" cy="20" r="20"/>
    </clipPath>
  </defs>
  <g id="Layer_2" data-name="Layer 2">
    <g id="Layer_1-2" data-name="Layer 1-2">
      <g class="cls-2">
        <g>
          <circle class="cls-4" cx="20" cy="20" r="20"/>
          <path class="cls-3" d="m10.7,11.07c.32-.6.7-1.17,1.14-1.69-.44.52-.82,1.09-1.14,1.69Z"/>
          <path class="cls-3" d="m11,21.65c.25.42.54.81.85,1.19-.31-.38-.6-.77-.85-1.19Z"/>
          <path class="cls-3" d="m13.27,24.28c.35.28.71.54,1.09.78h0c-.38-.24-.74-.5-1.09-.78Z"/>
          <path class="cls-3" d="m13.27,8c.54-.45,1.12-.85,1.73-1.19-.61.34-1.19.74-1.73,1.19Z"/>
        </g>
      </g>
    </g>
  </g>
  <g>
    <ellipse class="cls-1" cx="20" cy="30.01" rx="11.72" ry="5.58"/>
    <ellipse class="cls-4" cx="20" cy="30.01" rx="8.76" ry="3.15"/>
    <g>
      <path class="cls-1" d="m20.03,32.53c-2.41,0-4.66-.41-6.19-1.12-.18-.08-.29-.26-.29-.45v-5.83c0-.28.22-.5.5-.5h.54v-1.88h-.65c-.28,0-.5-.22-.5-.5v-6.76c0-.07.02-.14.04-.21l4.91-10.95c.17-.41.51-.75.93-.92.21-.08.43-.13.65-.13.7,0,1.33.42,1.59,1.07l4.84,10.93c.03.06.04.13.04.2v6.76c0,.28-.22.5-.5.5h-.4v1.88h.51c.28,0,.5.22.5.5v5.81c0,.19-.11.37-.29.45-1.53.73-3.8,1.14-6.24,1.14Z"/>
      <path class="cls-4" d="m19.98,3.78c.48,0,.93.29,1.13.76l4.84,10.95v6.76h-.9v2.88h1.01v5.81c-1.32.62-3.47,1.09-6.02,1.09s-4.66-.46-5.98-1.07v-5.83h1.04v-2.88h-1.15v-6.76l4.91-10.95c.12-.3.36-.54.67-.67.15-.06.31-.09.46-.09m0-1s0,0,0,0c-.29,0-.57.06-.84.16-.55.22-.99.67-1.21,1.21l-4.9,10.92c-.06.13-.09.27-.09.41v6.76c0,.55.45,1,1,1h.15v.88h-.04c-.55,0-1,.45-1,1v5.83c0,.39.23.74.58.91,1.59.74,3.93,1.17,6.4,1.17s4.86-.43,6.45-1.19c.35-.17.57-.52.57-.9v-5.81c0-.55-.45-1-1-1h-.01v-.89c.51-.05.9-.48.9-1v-6.76c0-.14-.03-.28-.09-.4l-4.84-10.95c-.33-.81-1.14-1.35-2.04-1.35h0Z"/>
    </g>
    <path class="cls-4" d="m16,16.86c-.16,0-.29-.13-.28-.29.09-1.3.76-2.43,1.75-3.15.13-.09.31-.05.39.08l1.38,2.2c-.39.24-.65.67-.65,1.16h-2.59Zm3.24,1.16c.21.13.46.21.73.21s.51-.08.72-.21l1.38,2.2c.08.13.04.31-.1.38-.6.32-1.29.5-2.01.5s-1.4-.18-2-.5c-.14-.07-.18-.25-.1-.38l1.38-2.2Zm2.1-1.16c0-.49-.26-.92-.65-1.16l1.38-2.2c.08-.13.26-.17.39-.08.99.72,1.67,1.85,1.75,3.15.01.16-.12.29-.28.29h-2.59Z"/>
    <path class="cls-4" d="m20,3.42c3.84,0,6.96.81,6.96,1.81s-3.12,1.81-6.96,1.81-6.96-.81-6.96-1.81,3.12-1.81,6.96-1.81m0-1c-1.33,0-7.96.14-7.96,2.81s6.63,2.81,7.96,2.81,7.96-.14,7.96-2.81-6.63-2.81-7.96-2.81h0Z"/>
    <path class="cls-4" d="m20,24.99c-5.51,0-9.83-2.41-9.83-5.48h1c0,2.43,4.05,4.48,8.83,4.48s8.83-2.05,8.83-4.48h1c0,3.07-4.32,5.48-9.83,5.48Z"/>
  </g>
</svg>