<svg id="Layer_1" data-name="Layer 1" xmlns="http://www.w3.org/2000/svg" viewBox="0 0 40 40">
  <defs>
    <style>
      .cls-1 {
        fill: #e43621;
      }

      .cls-2, .cls-3 {
        fill: #fff;
      }

      .cls-2 {
        stroke: #fff;
        stroke-linejoin: round;
      }
    </style>
  </defs>
  <g id="Layer_2" data-name="Layer 2">
    <g id="Layer_1-2" data-name="Layer 1-2">
      <circle class="cls-1" cx="20" cy="20" r="20"/>
      <circle class="cls-2" cx="20" cy="6.81" r="0.71"/>
      <path class="cls-3" d="M33.06,31.36l-2.55-1.92a.51.51,0,0,0-.6,0L28.1,30.81,27.57,24h1.64a.5.5,0,0,0,0-1h-.74V17.7h.75a.5.5,0,0,0,0-1h-.75V15.1l2.2-5.1a.52.52,0,0,0-.8-.6l-5.46,5.15h0a.28.28,0,0,0-.08.11v.05a.11.11,0,0,0,0,.08v.11h0v1.7h-1.6V15a.5.5,0,0,0-.5-.5h-.67L20.49,6.75A.5.5,0,0,0,20,6.31a.51.51,0,0,0-.5.44L18.44,14.5h-.68a.5.5,0,0,0-.5.5v1.7h-1V13.51a.5.5,0,0,0-1,0V16.7h-.48L7.66,9.43H7.6a.21.21,0,0,0-.1-.06H7.05l0,0H7l-.06.06v.27h0V17.2a.5.5,0,0,0,1,0V11.5l3.33,5.2h-.34a.5.5,0,0,0,0,1h.75V23h-.76a.5.5,0,0,0,0,1h1.64L12,30.8l-1.81-1.36a.51.51,0,0,0-.6,0L7,31.36a.5.5,0,1,0,.6.8h0l2.25-1.69,2.24,1.69h0a.5.5,0,0,0,.24.09h0a.47.47,0,0,0,.28-.09h0l2.25-1.69,2.24,1.69h0a.62.62,0,0,0,.26.09h0a.47.47,0,0,0,.28-.09h0L20,30.47l2.24,1.69h0a.44.44,0,0,0,.25.08h.05a.58.58,0,0,0,.25-.09h0L25,30.46l2.25,1.69h0a.47.47,0,0,0,.28.09h0a.92.92,0,0,0,.23-.09h0L30,30.46l2.25,1.69a.47.47,0,0,0,.3.1.5.5,0,0,0,.5-.5.48.48,0,0,0-.2-.4Zm-6.24-4.14-1.34-1.28,1.14-1.23Zm-2.06-2L23.48,24h2.41ZM12.54,19.81h4.72v1.11H12.54Zm5.72,0h3.47v1.11H18.26Zm6.48-2.11h2.73v1.11H22.73V17.7Zm2.73,3.22H22.73V19.81h4.74ZM18.26,17.7h3.47v1.11H18.26Zm3.47,4.22V23H18.26V21.92Zm-4.6,5.37L15.93,26l1.29-1.24Zm1.09-2.54,1.11,1.17L18.14,27.2Zm.7-.72h2.16L20,25.19Zm2.86.72.1,2.41L20.7,25.91Zm1,0L24.07,26l-1.18,1.28ZM22.73,23V21.92h4.74V23Zm4.91-8.53H26l2.77-2.61Zm-7.64-4,.55,4H19.44ZM13.42,16.7H12.31l-2-3.19Zm1.18,1h2.66v1.11H12.54V17.7Zm-2.06,4.22h4.72V23H12.54Zm4,2.11-1.27,1.23L14.11,24Zm-2,1.92-1.31,1.27.17-2.5Zm.12,3.49L13,30.7l.13-2,2.11-2,1.88,2L17,30.78l-1.78-1.34a.51.51,0,0,0-.58,0Zm5.09,0L18,30.73l.07-2L20,26.65l1.93,2,.08,2-1.7-1.28a.5.5,0,0,0-.58.08Zm5.09,0L23,30.79V28.67l1.85-2,2.13,2,.15,2-1.66-1.25a.51.51,0,0,0-.65,0Z"/>
      <path class="cls-3" d="M29.91,32.89l-2.24,1.69-2.25-1.69a.51.51,0,0,0-.6,0l-2.55,1.92a.49.49,0,0,0-.1.69h0a.48.48,0,0,0,.4.2.47.47,0,0,0,.3-.1l2.24-1.69,2.25,1.69a.51.51,0,0,0,.6,0l2.54-1.92a.5.5,0,0,0,.1-.7h0A.51.51,0,0,0,29.91,32.89Z"/>
      <path class="cls-3" d="M15.24,32.89a.51.51,0,0,0-.6,0l-2.55,1.92a.5.5,0,1,0,.6.8h0l2.25-1.69,2.24,1.69a.47.47,0,0,0,.3.1.5.5,0,0,0,.32-.89h0Z"/>
    </g>
  </g>
</svg>
