<svg id="Layer_1" data-name="Layer 1" xmlns="http://www.w3.org/2000/svg" viewBox="0 0 40 40">
  <defs>
    <style>
      .cls-1 {
        fill: #2baae2;
      }

      .cls-2 {
        fill: #fff;
      }
    </style>
  </defs>
  <g id="Layer_2" data-name="Layer 2">
    <g id="Layer_1-2" data-name="Layer 1-2">
      <circle class="cls-1" cx="20" cy="20" r="20"/>
      <g>
        <path class="cls-2" d="M33,29l-2.55-1.91a.48.48,0,0,0-.6,0l-2.24,1.68-2.07-1.55-.41-5.62h2.93a.5.5,0,0,0,.5-.5.5.5,0,0,0-.5-.5h-.88V15.72h.88a.5.5,0,0,0,.5-.5.5.5,0,0,0-.5-.5h-1V10.91a.5.5,0,0,0-.5-.5h-1V8.81a.5.5,0,0,0-.5-.5.52.52,0,0,0-.5.5v1.6h-1a.52.52,0,0,0-.5.5v3.81H22V10.91a.51.51,0,0,0-.5-.5h-1V8.81a.51.51,0,0,0-.5-.5.5.5,0,0,0-.5.5v1.6h-1a.5.5,0,0,0-.5.5v3.81h-.33l-7.49-8h0l-.09-.1L10,6.56H9.54l-.1.16-.06.09V7h0V18.18a.5.5,0,0,0,1,0V9.49l2.15,5.23h-.44a.5.5,0,0,0-.5.5.5.5,0,0,0,.5.5h.7v4.84h-.7a.5.5,0,0,0-.5.5.5.5,0,0,0,.5.5H15l-.45,5.52-2.2,1.65-2.27-1.64a.53.53,0,0,0-.61,0L7,29a.53.53,0,0,0-.19.4.5.5,0,0,0,.79.48l2.25-1.69,2.27,1.69a.48.48,0,0,0,.6,0l2.25-1.69,2.24,1.69a.48.48,0,0,0,.6,0L20,28.19l2.24,1.69a.48.48,0,0,0,.6,0l2.22-1.69,2.25,1.69a.48.48,0,0,0,.6,0l2.24-1.69,2.25,1.69a.42.42,0,0,0,.3.1.48.48,0,0,0,.4-.2.51.51,0,0,0,.09-.38A.53.53,0,0,0,33,29Zm-8.8-1.49-1.69,1.26L20.3,27.09a.48.48,0,0,0-.6,0l-2.25,1.68-1.67-1.26,4.31-2.79ZM21,24.11,24.19,22l.33,4.52Zm-5.33,2.31L16,22l3.16,2.11Zm1.81-10.7h8.78v2H13.79v-2Zm-1.12-1H13.62L11.38,9.39Zm-2.52,4H26.21v1.92H13.79ZM23,21.64l-2.87,1.87L17.24,21.6Z"/>
        <path class="cls-2" d="M15.21,30.61a.51.51,0,0,0-.6,0L12.36,32.3l-2.27-1.69a.51.51,0,0,0-.7.1.49.49,0,0,0,.08.69h0l2.61,1.92a.48.48,0,0,0,.6,0l2.25-1.69,2.24,1.69a.42.42,0,0,0,.3.1.48.48,0,0,0,.4-.2.5.5,0,0,0-.1-.7h0Z"/>
        <path class="cls-2" d="M25.39,30.61a.51.51,0,0,0-.6,0l-2.55,1.92a.52.52,0,0,0-.1.71.5.5,0,0,0,.7.09l2.25-1.69,2.25,1.69a.42.42,0,0,0,.3.1.5.5,0,0,0,.5-.5.51.51,0,0,0-.2-.4Z"/>
      </g>
    </g>
  </g>
</svg>
