<svg id="Layer_1" data-name="Layer 1" xmlns="http://www.w3.org/2000/svg" viewBox="0 0 40 40">
  <defs>
    <style>
      .cls-1 {
        fill: #5eb35e;
      }

      .cls-2 {
        fill: none;
      }

      .cls-3 {
        fill: #fff;
      }
    </style>
  </defs>
  <g id="Layer_2" data-name="Layer 2">
    <g id="Layer_1-2" data-name="Layer 1-2">
      <circle class="cls-1" cx="20" cy="20" r="20"/>
      <path class="cls-2" d="M20.9,10.6l-.7-.8-.7.8A7.9,7.9,0,0,1,12,13.3v7.2a12.33,12.33,0,0,0,4.6,9.6L20.2,33l3.6-2.9a12.33,12.33,0,0,0,4.6-9.6V13.3A7.9,7.9,0,0,1,20.9,10.6Zm6.3,9.8A11.25,11.25,0,0,1,23,29.1l-2.9,2.3-2.8-2.3a10.94,10.94,0,0,1-4.2-8.7V14.5a8.75,8.75,0,0,0,7-3,8.89,8.89,0,0,0,7,3Z"/>
      <g>
        <path class="cls-3" d="M29.7,11.1a1,1,0,0,0-.9-.1,5.91,5.91,0,0,1-6.6-1.7L20.7,7.5a1,1,0,0,0-1.4-.1.1.1,0,0,0-.1.1L17.7,9.3A5.6,5.6,0,0,1,11.1,11a.94.94,0,0,0-.9.1.91.91,0,0,0-.4.8v8.5a14.42,14.42,0,0,0,5.4,11.2L19.4,35a.91.91,0,0,0,1.2,0l4.2-3.4a14.27,14.27,0,0,0,5.4-11.2V11.9A.89.89,0,0,0,29.7,11.1Zm-1.5,9.3A12.33,12.33,0,0,1,23.6,30L20,32.9,16.4,30a12.33,12.33,0,0,1-4.6-9.6V13.2a7.68,7.68,0,0,0,7.5-2.7l.7-.8.7.8a7.68,7.68,0,0,0,7.5,2.7Z"/>
        <path class="cls-3" d="M20,11.6a9.1,9.1,0,0,1-7.1,3v5.8a10.94,10.94,0,0,0,4.2,8.7L20,31.4l2.8-2.3A10.94,10.94,0,0,0,27,20.4V14.5A8.38,8.38,0,0,1,20,11.6Zm1,4.7V17a4.18,4.18,0,0,1,1.8,1.1,1,1,0,1,1-1.4,1.4h0c-.6-.6-1.7-.8-2-.1a.6.6,0,0,0-.1.4c0,.4.4.7,1,.9a2.76,2.76,0,0,1,2.6,2.8,2.3,2.3,0,0,1-.4,1.4A3.18,3.18,0,0,1,21,26.2v.7a1,1,0,0,1-2,0V26a3.23,3.23,0,0,1-1.7-1,1.06,1.06,0,0,1,1.5-1.5c.6.6,1.7.8,2,.1a.6.6,0,0,0,.1-.4c0-.4-.3-.7-1-.9a2.76,2.76,0,0,1-2.6-2.8,2.3,2.3,0,0,1,.4-1.4,2.36,2.36,0,0,1,1.4-1.2v-.7a.94.94,0,0,1,1-1c.6,0,.9.5.9,1.1Z"/>
      </g>
    </g>
  </g>
</svg>
