<svg id="Layer_1" data-name="Layer 1" xmlns="http://www.w3.org/2000/svg" viewBox="0 0 40 40">
  <defs>
    <style>
      .cls-1 {
        fill: #e43621;
      }

      .cls-2 {
        fill: #fff;
      }
    </style>
  </defs>
  <g id="Layer_2" data-name="Layer 2">
    <g id="Layer_1-2" data-name="Layer 1-2">
      <circle class="cls-1" cx="20" cy="20" r="20"/>
      <path class="cls-2" d="M17.78,12.83,18,10.48a.18.18,0,0,0-.15-.19h-10a.16.16,0,0,0-.16.18h0l.22,2.38a37.07,37.07,0,0,1-2.08,16,.17.17,0,0,0,.1.22H19.7a.16.16,0,0,0,.16-.16.13.13,0,0,0,0-.06A36.8,36.8,0,0,1,17.78,12.83Z"/>
      <rect class="cls-2" x="4.88" y="28.4" width="15.96" height="1.33" rx="0.16"/>
      <path class="cls-2" d="M33.53,12.83l.22-2.35a.18.18,0,0,0-.15-.19h-10a.16.16,0,0,0-.16.18h0l.22,2.38a37.07,37.07,0,0,1-2.08,16,.17.17,0,0,0,.1.22H35.45a.16.16,0,0,0,.16-.16.13.13,0,0,0,0-.06A36.8,36.8,0,0,1,33.53,12.83Z"/>
      <rect class="cls-2" x="20.63" y="28.4" width="15.96" height="1.33" rx="0.16"/>
      <circle class="cls-1" cx="12.72" cy="18.89" r="0.63"/>
      <path id="bld" class="cls-1" d="M14.15,18.65a1,1,0,0,0-.47-.82l1.1-1.91a3.14,3.14,0,0,1,1.58,2.73Z"/>
      <path id="bld-2" class="cls-1" d="M12.26,20.16a1,1,0,0,0,1,0l1.1,1.92a3.18,3.18,0,0,1-3.16,0Z"/>
      <path id="bld-3" class="cls-1" d="M11.81,17.83a.94.94,0,0,0-.48.82H9.12a3.14,3.14,0,0,1,1.58-2.73Z"/>
      <polygon class="cls-1" points="21.16 13.96 25.03 19.71 26.53 15.46 28.16 20.34 29.66 17.21 30.91 20.34 31.28 14.09 35.91 19.96 35.16 7.21 20.53 7.84 21.16 13.96"/>
    </g>
  </g>
</svg>
