<svg id="Layer_1" data-name="Layer 1" xmlns="http://www.w3.org/2000/svg" xmlns:xlink="http://www.w3.org/1999/xlink" viewBox="0 0 40 40">
  <defs>
    <style>
      .cls-1 {
        fill: none;
      }

      .cls-2 {
        clip-path: url(#clip-path);
      }

      .cls-3 {
        fill: #e43621;
      }

      .cls-4 {
        fill: #fff;
      }
    </style>
    <clipPath id="clip-path">
      <circle id="SVGID" class="cls-1" cx="20" cy="20" r="20"/>
    </clipPath>
  </defs>
  <g id="Layer_2" data-name="Layer 2">
    <g id="Layer_1-2" data-name="Layer 1-2">
      <g class="cls-2">
        <g>
          <circle class="cls-3" cx="20" cy="20" r="20"/>
          <path class="cls-1" d="M10.7,11.07a9.63,9.63,0,0,1,1.14-1.69A9.63,9.63,0,0,0,10.7,11.07Z"/>
          <path class="cls-1" d="M11,21.65a9.9,9.9,0,0,0,.85,1.19A9.9,9.9,0,0,1,11,21.65Z"/>
          <path class="cls-1" d="M13.27,24.28a12,12,0,0,0,1.09.78h0A12,12,0,0,1,13.27,24.28Z"/>
          <path class="cls-1" d="M13.27,8A11.3,11.3,0,0,1,15,6.81,11.3,11.3,0,0,0,13.27,8Z"/>
          <path class="cls-4" d="M14.36,32.17a.82.82,0,0,0,.82.81.81.81,0,0,0,.81-.81h0V26.76A11,11,0,0,1,14.36,26Z"/>
          <path class="cls-4" d="M24,32.17a.81.81,0,0,0,.81.81h0a.82.82,0,0,0,.82-.81V26a11,11,0,0,1-1.63.76Z"/>
          <path class="cls-4" d="M20,5.53a10.65,10.65,0,0,0-5,1.28A11.3,11.3,0,0,0,13.27,8a10.73,10.73,0,0,0-1.43,1.43,9.63,9.63,0,0,0-1.14,1.69A10.65,10.65,0,0,0,9.55,14.5h20.9A10.57,10.57,0,0,0,20,5.53Z"/>
          <path class="cls-4" d="M31.43,15.3H8.57a.81.81,0,0,0-.81.81h0a.82.82,0,0,0,.81.82h.8V32.17a.81.81,0,0,0,1.62,0V21.65h0a9.9,9.9,0,0,0,.85,1.19,10.25,10.25,0,0,0,1.43,1.44,12,12,0,0,0,1.09.78c.2.12.39.25.6.36a9.18,9.18,0,0,0,1,.48,10.37,10.37,0,0,0,3.2.75v5.73a.81.81,0,0,0,1.62,0h0V16.93H29v.8H21.6v8.83A11.09,11.09,0,0,0,24,25.9a10,10,0,0,0,1.63-.84A10.66,10.66,0,0,0,29,21.65V32.17a.81.81,0,0,0,1.62,0V16.93h.8a.82.82,0,0,0,0-1.63ZM16,17.73H11v-.8h8.2v.8Z"/>
        </g>
      </g>
    </g>
  </g>
</svg>
