<svg id="Layer_1" data-name="Layer 1" xmlns="http://www.w3.org/2000/svg" viewBox="0 0 40 40">
  <defs>
    <style>
      .cls-1 {
        fill: #2baae2;
      }

      .cls-2 {
        fill: #fff;
      }
    </style>
  </defs>
  <g id="Layer_2" data-name="Layer 2">
    <g id="Layer_1-2" data-name="Layer 1-2">
      <circle class="cls-1" cx="20" cy="20" r="20"/>
      <path class="cls-2" d="M17.07,26.26a2.36,2.36,0,1,0,2.36,2.36,2.36,2.36,0,0,0-2.36-2.36Zm0,3.46a1.1,1.1,0,1,1,1.1-1.1A1.1,1.1,0,0,1,17.07,29.72Z"/>
      <path class="cls-2" d="M26.66,26.26A2.36,2.36,0,1,0,29,28.64v0A2.35,2.35,0,0,0,26.66,26.26Zm0,3.46a1.1,1.1,0,1,1,1.1-1.1A1.1,1.1,0,0,1,26.66,29.72Z"/>
      <path class="cls-2" d="M31.09,12.89a.52.52,0,0,0-.41-.21H13.46l-.09-.55a2.83,2.83,0,0,0-2.86-2.32H8.58a.5.5,0,0,0,0,1h1.93a1.83,1.83,0,0,1,1.87,1.46l.48,3.08H26.78a.5.5,0,0,1,0,1H13l.36,2.31h12a.5.5,0,0,1,0,1H13.54l.35,2.23a.51.51,0,0,0,.5.43H27.47a1.15,1.15,0,0,1,1.28,1,1.17,1.17,0,0,1-1.28,1H14.65a.52.52,0,0,0-.5.5.5.5,0,0,0,.5.5H27.47a2.15,2.15,0,0,0,2.28-2,2,2,0,0,0-1.58-1.89l3-8.07A.47.47,0,0,0,31.09,12.89Z"/>
    </g>
  </g>
</svg>
