<svg id="Layer_1" data-name="Layer 1" xmlns="http://www.w3.org/2000/svg" viewBox="0 0 40 40">
  <defs>
    <style>
      .cls-1 {
        fill: #8aa0a8;
      }

      .cls-2 {
        fill: #282828;
      }
    </style>
  </defs>
  <g>
    <path class="cls-1" d="M22.81,26.56a2.91,2.91,0,0,1-4.48-1.06l-.87-.22-3-.75a2.93,2.93,0,1,1-5.74-1,21.68,21.68,0,0,0-6.19.58v1.44a.34.34,0,0,0,.27.32A34.65,34.65,0,0,0,2.33,30a1.07,1.07,0,0,0,2.13,0A36.09,36.09,0,0,0,4,25.91h.49a7.45,7.45,0,0,0,7.27,5.91H30.24a7.45,7.45,0,0,0,7.09-5.23A32.63,32.63,0,0,1,22.81,26.56Z"/>
    <g>
      <path class="cls-2" d="M9.31,22.43a2.91,2.91,0,0,1,5.06.95l3.09.78.59.15v0a2.94,2.94,0,1,1,5.55,1.32,38.12,38.12,0,0,0,4.59.61,2.94,2.94,0,1,1,4.42,0,32.87,32.87,0,0,0,5-.77,8.42,8.42,0,0,0,.08-1A7.45,7.45,0,0,0,30.24,17H28.7c-.13,0-.28-.13-.28-.46V13.09a.81.81,0,0,0-.81-.81H25V9.64a.39.39,0,0,1,.39-.39h1.24a.54.54,0,0,0,0-1.07H25.23A1.21,1.21,0,0,0,24,9.39v2.89H22.17a.81.81,0,0,0-.76.54L19.9,17H11.73a7.44,7.44,0,0,0-7.19,5.63A20.38,20.38,0,0,1,9.31,22.43Z"/>
      <path class="cls-2" d="M4,22.68a34,34,0,0,0,.46-3.89,1.07,1.07,0,0,0-2.13,0,34.88,34.88,0,0,0,.5,4.14C3.22,22.84,3.61,22.75,4,22.68Z"/>
    </g>
  </g>
</svg>
