<svg id="Layer_1" data-name="Layer 1" xmlns="http://www.w3.org/2000/svg" viewBox="0 0 40 40">
  <defs>
    <style>
      .cls-1 {
        fill: #2baae2;
      }

      .cls-2, .cls-3, .cls-4 {
        fill: none;
        stroke: #fff;
      }

      .cls-2, .cls-4 {
        stroke-linecap: round;
      }

      .cls-2 {
        stroke-linejoin: round;
      }

      .cls-2, .cls-3 {
        stroke-width: 2px;
      }

      .cls-3, .cls-4 {
        stroke-miterlimit: 10;
      }

      .cls-5 {
        fill: #fff;
      }
    </style>
  </defs>
  <g id="Layer_2" data-name="Layer 2">
    <g id="Layer_1-2" data-name="Layer 1-2">
      <circle class="cls-1" cx="20" cy="20" r="20"/>
      <polyline class="cls-2" points="4.06 15.72 19.57 9.61 35.94 16.46"/>
      <line class="cls-3" x1="32.3" y1="31.52" x2="32.3" y2="15.09"/>
      <line class="cls-3" x1="7.7" y1="14.58" x2="7.7" y2="31.52"/>
      <line class="cls-4" x1="28.97" y1="31.1" x2="28.97" y2="18.6"/>
      <line class="cls-4" x1="17.08" y1="31.16" x2="17.08" y2="18.67"/>
      <line class="cls-4" x1="15.59" y1="26.53" x2="28.86" y2="26.53"/>
      <line class="cls-4" x1="15.59" y1="20.84" x2="28.86" y2="20.84"/>
      <rect class="cls-5" x="18.84" y="27.85" width="3.44" height="3.25" rx="0.23"/>
      <rect class="cls-5" x="9.7" y="28.31" width="3.44" height="3.25" rx="0.21"/>
      <rect class="cls-5" x="9.7" y="23.83" width="3.44" height="3.25" rx="0.21"/>
      <rect class="cls-5" x="23.69" y="27.85" width="3.44" height="3.25" rx="0.23"/>
      <rect class="cls-5" x="18.84" y="22.07" width="3.44" height="3.25" rx="0.23"/>
      <rect class="cls-5" x="23.69" y="22.07" width="3.44" height="3.25" rx="0.23"/>
      <rect class="cls-5" x="18.78" y="16.3" width="3.44" height="3.25" rx="0.23"/>
      <rect class="cls-5" x="23.63" y="16.3" width="3.44" height="3.25" rx="0.23"/>
    </g>
  </g>
</svg>
