<svg id="Layer_1" data-name="Layer 1" xmlns="http://www.w3.org/2000/svg" viewBox="0 0 40 40">
  <defs>
    <style>
      .cls-1 {
        fill: #e43621;
      }

      .cls-2, .cls-3 {
        fill: #fff;
      }

      .cls-3, .cls-4 {
        stroke: #e43621;
        stroke-miterlimit: 10;
      }

      .cls-4 {
        fill: none;
      }
    </style>
  </defs>
  <g id="Layer_2" data-name="Layer 2">
    <g id="Layer_1-2" data-name="Layer 1-2">
      <circle class="cls-1" cx="20" cy="20" r="20"/>
      <rect class="cls-2" x="19.47" y="17.42" width="1.06" height="17.38"/>
      <polygon class="cls-2" points="15.04 33.53 13 33.52 16.69 16.4 18.65 16.82 15.04 33.53"/>
      <polygon class="cls-2" points="25.06 33.52 21.38 16.82 23.33 16.4 27 33.51 25.06 33.52"/>
      <path class="cls-1" d="M25.28,19h-.09a28.3,28.3,0,0,0-10.46,0h0V16.53h.07a28.35,28.35,0,0,1,10.47,0h0Z"/>
      <path class="cls-2" d="M25.28,18.49h-.09a28.3,28.3,0,0,0-10.46,0h0V16h.07a28.35,28.35,0,0,1,10.47,0h0Z"/>
      <rect class="cls-2" x="17.61" y="13.05" width="4.78" height="3.09"/>
      <rect class="cls-2" x="18.22" y="34.31" width="3.56" height="0.84"/>
      <path class="cls-3" d="M26.71,5.8l-.39-.07a40.22,40.22,0,0,0-13,.07h0v8.59h0a40.5,40.5,0,0,1,13-.07l.39.07Z"/>
      <line class="cls-4" x1="16.78" y1="5.6" x2="16.78" y2="14.13"/>
      <line class="cls-4" x1="22.92" y1="5.45" x2="22.92" y2="13.99"/>
    </g>
  </g>
</svg>
